<?xml version="1.0" encoding="UTF-8" standalone="no"?>
<svg width="32px" height="32px" viewBox="0 0 32 32" version="1.1" xmlns="http://www.w3.org/2000/svg" xmlns:xlink="http://www.w3.org/1999/xlink">
    <!-- Generator: Sketch 47.1 (45422) - http://www.bohemiancoding.com/sketch -->
    <title>Fill 1</title>
    <desc>Created with Sketch.</desc>
    <defs></defs>
    <g id="atual" stroke="none" stroke-width="1" fill="none" fill-rule="evenodd">
        <g id="GEC_Inicial-Copy-2" transform="translate(-1149.000000, -3497.000000)" fill="#969696">
            <path d="M1170.56828,3525.38252 L1171.25293,3522.9033 L1174.13795,3523.03239 C1173.06573,3524.01117 1171.86212,3524.80006 1170.56828,3525.38252 L1170.56828,3525.38252 Z M1165.00371,3526.57035 L1164.99988,3526.57035 C1163.95672,3526.57035 1162.93173,3526.45274 1161.93936,3526.2251 L1160.73804,3521.87476 L1162.59845,3519.12084 L1167.15597,3519.12084 L1169.01634,3521.87476 L1167.79931,3526.28206 C1166.88983,3526.47176 1165.95441,3526.57007 1165.00371,3526.57035 L1165.00371,3526.57035 Z M1155.85083,3523.02193 L1158.50145,3522.9033 L1159.15002,3525.25184 C1157.95851,3524.68185 1156.84783,3523.93398 1155.85083,3523.02193 L1155.85083,3523.02193 Z M1159.95078,3500.39717 L1163.78515,3503.45396 L1163.78515,3507.50882 L1159.942,3510.57256 L1159.97568,3510.45538 L1156.22243,3509.37624 L1154.40196,3504.52319 C1154.71282,3504.13613 1155.04568,3503.76313 1155.40167,3503.40695 C1156.72214,3502.08573 1158.2674,3501.07126 1159.95078,3500.39717 L1159.95078,3500.39717 Z M1164.99624,3499.42965 L1165.00007,3499.42965 C1165.72803,3499.42965 1166.44698,3499.48755 1167.15237,3499.59931 L1164.99998,3501.31516 L1162.84763,3499.59931 C1163.55181,3499.48778 1164.26954,3499.42984 1164.99624,3499.42965 L1164.99624,3499.42965 Z M1174.59305,3503.40172 C1174.91689,3503.72542 1175.22223,3504.06268 1175.50889,3504.41213 L1175.47996,3504.40124 L1173.57871,3509.46969 L1169.97446,3510.50598 L1166.2148,3507.50882 L1166.2148,3503.45396 L1170.04922,3500.39717 C1171.73026,3501.07037 1173.27365,3502.08307 1174.59305,3503.40172 L1174.59305,3503.40172 Z M1175.98332,3509.97711 L1177.13419,3506.90911 C1177.87392,3508.37915 1178.3392,3509.97791 1178.50353,3511.64129 L1175.98332,3509.97711 Z M1161.69588,3512.28159 L1164.99998,3509.64757 L1168.30407,3512.28159 L1166.99832,3516.69118 L1163.00168,3516.69118 L1161.69588,3512.28159 Z M1153.81782,3509.88366 L1151.5232,3511.39888 C1151.69902,3509.89352 1152.12239,3508.44428 1152.77316,3507.09881 L1153.81782,3509.88366 Z M1158.76184,3520.45962 L1153.80941,3520.68119 C1152.51113,3518.7983 1151.71565,3516.62549 1151.49381,3514.32984 L1155.48713,3511.69292 L1159.30431,3512.79042 L1159.30842,3512.77617 L1160.72369,3517.55558 L1158.76184,3520.45962 Z M1170.99253,3520.45962 L1169.20146,3517.80836 L1170.67486,3512.83266 L1174.31396,3511.78636 L1178.48353,3514.53963 C1178.23412,3516.76197 1177.44621,3518.86385 1176.18321,3520.69184 L1170.99253,3520.45962 Z M1179.74041,3506.76768 C1178.934,3504.86246 1177.78005,3503.15179 1176.31058,3501.68316 C1174.84115,3500.21457 1173.12988,3499.06156 1171.22424,3498.25618 C1169.25197,3497.42262 1167.15802,3497 1165.00007,3497 L1164.99558,3497 C1162.83614,3497.00056 1160.74075,3497.42435 1158.76763,3498.25959 C1156.86246,3499.066 1155.15179,3500.21995 1153.68316,3501.68937 C1152.21453,3503.1588 1151.06156,3504.87007 1150.25613,3506.77572 C1149.42201,3508.74934 1148.99939,3510.84492 1149,3513.00437 C1149.00056,3515.16386 1149.42435,3517.25925 1150.25959,3519.23232 C1151.06595,3521.1375 1152.21995,3522.84821 1153.68937,3524.31679 C1155.1588,3525.78543 1156.87007,3526.93844 1158.77572,3527.74382 C1160.74799,3528.57738 1162.84198,3529 1164.99988,3529 L1165.00437,3529 C1167.16386,3528.99939 1169.25921,3528.57565 1171.23232,3527.74041 C1173.1375,3526.934 1174.84821,3525.78005 1176.31679,3524.31063 C1177.78543,3522.84115 1178.93844,3521.12988 1179.74382,3519.22424 C1180.57794,3517.25066 1181.00056,3515.15503 1181,3512.99563 C1180.99939,3510.83614 1180.57565,3508.74075 1179.74041,3506.76768 L1179.74041,3506.76768 Z" id="Fill-1"></path>
        </g>
    </g>
</svg>