<svg width="32" height="32" xmlns="http://www.w3.org/2000/svg"><path d="M21.568 28.383l.685-2.48 2.885.13a13.528 13.528 0 0 1-3.57 2.35zm-5.564 1.187H16c-1.043 0-2.068-.117-3.06-.345l-1.202-4.35 1.86-2.754h4.558l1.86 2.754-1.217 4.407c-.91.19-1.845.288-2.795.288zM6.85 26.022l2.65-.119.649 2.349a13.546 13.546 0 0 1-3.3-2.23zm4.1-22.625l3.834 3.057v4.055l-3.843 3.064.034-.118-3.754-1.079-1.82-4.853c.31-.387.644-.76 1-1.116a13.541 13.541 0 0 1 4.549-3.01zm5.045-.967H16c.728 0 1.447.058 2.152.17L16 4.314 13.848 2.6c.704-.111 1.422-.17 2.148-.17zm9.597 3.972c.324.323.63.66.916 1.01l-.029-.01-1.901 5.068-3.605 1.036-3.76-2.997V6.454l3.835-3.057a13.543 13.543 0 0 1 4.544 3.005zm1.39 6.575l1.151-3.068a13.452 13.452 0 0 1 1.37 4.732l-2.52-1.664zm-14.287 2.305L16 12.648l3.304 2.634-1.306 4.41h-3.996l-1.306-4.41zm-7.878-2.398l-2.295 1.515c.176-1.505.6-2.955 1.25-4.3l1.045 2.785zM9.762 23.46l-4.953.221a13.432 13.432 0 0 1-2.315-6.351l3.993-2.637 3.817 1.097.004-.014 1.416 4.78-1.962 2.904zm12.23 0l-1.79-2.652 1.473-4.975 3.639-1.047 4.17 2.754a13.427 13.427 0 0 1-2.3 6.152l-5.191-.232zM30.74 9.768a15.944 15.944 0 0 0-3.43-5.085A15.945 15.945 0 0 0 16 0h-.004A15.945 15.945 0 0 0 4.684 4.69 15.945 15.945 0 0 0 0 16.003a15.943 15.943 0 0 0 4.69 11.312A15.944 15.944 0 0 0 16 32h.004a15.944 15.944 0 0 0 11.312-4.69A15.945 15.945 0 0 0 32 15.997a15.9 15.9 0 0 0-1.26-6.228z" fill="#969696" fill-rule="evenodd"/></svg>